<svg width="24" height="24" viewBox="0 0 24 24" fill="none" xmlns="http://www.w3.org/2000/svg">
<path d="M21.8 8.2C21.6 7.4 21 6.8 20.2 6.6C18.6 6.2 12 6.2 12 6.2C12 6.2 5.4 6.2 3.8 6.6C3 6.8 2.4 7.4 2.2 8.2C1.8 9.8 1.8 13 1.8 13C1.8 13 1.8 16.2 2.2 17.8C2.4 18.6 3 19.2 3.8 19.4C5.4 19.8 12 19.8 12 19.8C12 19.8 18.6 19.8 20.2 19.4C21 19.2 21.6 18.6 21.8 17.8C22.2 16.2 22.2 13 22.2 13C22.2 13 22.2 9.8 21.8 8.2Z" stroke="white" stroke-width="1.5" fill="none"/>
<path d="M10 15.5L15.5 12.5L10 9.5V15.5Z" fill="white"/>
</svg>